<svg width="430" height="242" viewBox="0 0 430 242" fill="none" xmlns="http://www.w3.org/2000/svg">
<path fill-rule="evenodd" clip-rule="evenodd" d="M208.411 186.461C188.368 213.485 156.23 231 120 231C59.2487 231 10 181.751 10 121C10 60.2487 59.2487 11 120 11C156.23 11 188.368 28.5149 208.411 55.5393C210.319 52.6132 212.351 49.7755 214.5 47.0337C192.533 19.0082 158.37 1 120 1C53.7258 1 0 54.7258 0 121C0 187.274 53.7258 241 120 241C158.37 241 192.533 222.992 214.5 194.966C212.351 192.224 210.319 189.387 208.411 186.461ZM214.5 177.333C216.38 180.481 218.414 183.527 220.589 186.461C232.866 167.635 240 145.151 240 121C240 96.8492 232.866 74.3648 220.589 55.5393C218.414 58.473 216.38 61.5189 214.5 64.6665C224.344 81.1437 230 100.411 230 121C230 141.589 224.344 160.856 214.5 177.333Z" fill="#374151"/>
<path fill-rule="evenodd" clip-rule="evenodd" d="M220.479 55.6885C240.476 28.6304 272.585 11.0613 308.814 11.0002C369.566 10.8977 418.897 60.0632 419 120.814C419.102 181.566 369.937 230.897 309.186 231C272.956 231.061 240.788 213.6 220.7 186.61C218.797 189.539 216.769 192.38 214.625 195.126C236.639 223.114 270.833 241.065 309.202 241C375.477 240.888 429.112 187.072 429 120.798C428.888 54.5235 375.072 0.888396 308.798 1.00019C270.428 1.06492 236.295 19.1307 214.375 47.1933C216.529 49.9314 218.566 52.7657 220.479 55.6885ZM214.405 64.826C212.519 61.6815 210.481 58.6391 208.3 55.7091C196.056 74.5553 188.959 97.0517 189 121.202C189.041 145.353 196.213 167.826 208.521 186.63C210.692 183.693 212.72 180.644 214.595 177.493C204.724 161.032 199.035 141.774 199 121.186C198.965 100.597 204.589 81.3198 214.405 64.826Z" fill="#5651E5"/>
<path fill-rule="evenodd" clip-rule="evenodd" d="M141.496 99.5001V147.496C141.496 153.616 140.357 158.792 138.078 163.023C135.799 167.19 132.674 170.348 128.703 172.496C124.797 174.579 120.37 175.621 115.422 175.621C110.344 175.621 105.819 174.71 101.848 172.887C99.7925 171.928 97.9717 170.689 96.3851 169.172L86.9922 183.678C88.6135 184.721 90.3427 185.648 92.1797 186.461C98.9505 189.456 106.698 190.953 115.422 190.953C124.146 190.953 131.861 189.293 138.566 185.973C145.337 182.587 150.643 177.672 154.484 171.227C158.326 164.781 160.246 156.871 160.246 147.496V70.5417L141.496 99.5001ZM90.6491 159.631C89.7815 156.723 89.3477 153.394 89.3477 149.645H70.5C70.5 158.954 72.4206 166.669 76.2617 172.789C77.2109 174.301 78.2495 175.718 79.3775 177.04L90.6491 159.631ZM141.496 81.1009L160.246 52.1425V46.8125H141.496V81.1009Z" fill="#5651E5"/>
<path fill-rule="evenodd" clip-rule="evenodd" d="M340.848 144.273C341.889 146.812 342.41 149.742 342.41 153.062C342.41 157.685 341.206 161.689 338.797 165.074C336.453 168.46 333.003 171.064 328.445 172.887C323.888 174.71 318.322 175.621 311.746 175.621C307.189 175.621 302.794 175.1 298.562 174.059C294.396 172.952 290.652 171.259 287.332 168.98C287.142 168.848 286.955 168.713 286.77 168.576L278.075 182.006C282.459 184.674 287.205 186.744 292.312 188.219C298.693 190.042 305.171 190.953 311.746 190.953C319.233 190.953 326.004 190.074 332.059 188.316C338.178 186.493 343.419 183.922 347.781 180.602C352.143 177.281 355.496 173.277 357.84 168.59C360.184 163.902 361.355 158.661 361.355 152.867C361.355 147.333 360.411 142.385 358.523 138.023C356.701 133.596 353.868 129.658 350.027 126.207C346.251 122.691 341.434 119.534 335.574 116.734C331.967 115.011 327.94 113.386 323.493 111.86L313.656 127.054C318.149 128.482 322.005 129.892 325.223 131.285C329.65 133.173 333.1 135.159 335.574 137.242C338.113 139.326 339.871 141.669 340.848 144.273ZM279.869 160.836C279.784 160.688 279.7 160.538 279.617 160.387C277.729 156.871 276.785 152.672 276.785 147.789H258.035C258.035 154.885 259.565 161.135 262.625 166.539C264.676 170.042 267.16 173.181 270.08 175.955L279.869 160.836ZM303.721 123.998L313.559 108.803C308.173 107.272 303.5 105.684 299.539 104.039C295.372 102.281 291.922 100.361 289.188 98.2773C286.518 96.194 284.533 93.9479 283.23 91.5391C281.993 89.0651 281.375 86.3307 281.375 83.3359C281.375 78.9089 282.417 74.9701 284.5 71.5195C286.648 68.069 289.904 65.3346 294.266 63.3164C298.628 61.2982 304.161 60.2891 310.867 60.2891C317.964 60.2891 323.823 61.4935 328.445 63.9023C332.312 65.8628 335.358 68.461 337.585 71.697L346.981 57.1847C344.35 54.8734 341.362 52.8158 338.016 51.0117C330.594 46.9102 321.544 44.8594 310.867 44.8594C303.576 44.8594 296.967 45.8359 291.043 47.7891C285.118 49.7422 280.008 52.4766 275.711 55.9922C271.479 59.4427 268.224 63.5117 265.945 68.1992C263.667 72.8867 262.527 77.9974 262.527 83.5312C262.527 89.0651 263.602 93.9805 265.75 98.2773C267.898 102.574 270.991 106.383 275.027 109.703C279.064 113.023 283.914 115.986 289.578 118.59C293.895 120.525 298.609 122.328 303.721 123.998ZM353.858 64.963L341.933 83.3811C342.121 84.8124 342.215 86.2947 342.215 87.8281H360.965C360.965 80.4062 359.012 73.4401 355.105 66.9297C354.708 66.261 354.292 65.6055 353.858 64.963Z" fill="#374151"/>
</svg>
