<svg width="411" height="234" viewBox="0 0 411 234" fill="none" xmlns="http://www.w3.org/2000/svg">
<path d="M130.82 141.836V42.8125H157.676V141.836C157.676 151.276 155.625 159.382 151.523 166.152C147.422 172.858 141.823 178.001 134.727 181.582C127.63 185.163 119.622 186.953 110.703 186.953C101.523 186.953 93.3854 185.423 86.2891 182.363C79.1927 179.238 73.6263 174.486 69.5898 168.105C65.6185 161.725 63.6328 153.62 63.6328 143.789H90.5859C90.5859 149.128 91.3997 153.424 93.0273 156.68C94.6549 159.935 96.9661 162.279 99.9609 163.711C103.021 165.143 106.602 165.859 110.703 165.859C114.674 165.859 118.158 164.948 121.152 163.125C124.212 161.237 126.589 158.503 128.281 154.922C129.974 151.341 130.82 146.979 130.82 141.836Z" fill="#5651E5"/>
<path d="M322.953 148.086C322.953 145.352 322.53 142.91 321.684 140.762C320.902 138.548 319.438 136.562 317.289 134.805C315.206 132.982 312.243 131.224 308.402 129.531C304.626 127.773 299.743 125.951 293.754 124.062C287.113 121.979 280.928 119.635 275.199 117.031C269.47 114.427 264.424 111.4 260.062 107.949C255.766 104.499 252.413 100.527 250.004 96.0352C247.595 91.4779 246.391 86.2044 246.391 80.2148C246.391 74.3555 247.628 69.0169 250.102 64.1992C252.641 59.3815 256.221 55.2474 260.844 51.7969C265.466 48.2812 270.902 45.5794 277.152 43.6914C283.467 41.8034 290.434 40.8594 298.051 40.8594C308.598 40.8594 317.712 42.7799 325.395 46.6211C333.142 50.4622 339.132 55.6706 343.363 62.2461C347.595 68.8216 349.711 76.2109 349.711 84.4141H322.953C322.953 79.987 322.009 76.0807 320.121 72.6953C318.298 69.3099 315.499 66.6406 311.723 64.6875C308.012 62.7344 303.324 61.7578 297.66 61.7578C292.191 61.7578 287.634 62.5716 283.988 64.1992C280.408 65.8268 277.706 68.0404 275.883 70.8398C274.125 73.6393 273.246 76.7643 273.246 80.2148C273.246 82.819 273.865 85.1628 275.102 87.2461C276.339 89.2643 278.194 91.1849 280.668 93.0078C283.142 94.7656 286.202 96.4258 289.848 97.9883C293.559 99.4857 297.855 100.983 302.738 102.48C310.551 104.824 317.387 107.428 323.246 110.293C329.171 113.158 334.086 116.413 337.992 120.059C341.964 123.704 344.926 127.806 346.879 132.363C348.897 136.921 349.906 142.096 349.906 147.891C349.906 154.01 348.702 159.479 346.293 164.297C343.884 169.115 340.434 173.216 335.941 176.602C331.449 179.987 326.046 182.559 319.73 184.316C313.48 186.074 306.482 186.953 298.734 186.953C291.833 186.953 284.997 186.042 278.227 184.219C271.521 182.331 265.434 179.531 259.965 175.82C254.496 172.044 250.134 167.292 246.879 161.562C243.624 155.768 241.996 148.997 241.996 141.25H268.949C268.949 145.742 269.665 149.583 271.098 152.773C272.595 155.898 274.678 158.47 277.348 160.488C280.082 162.441 283.272 163.874 286.918 164.785C290.564 165.697 294.503 166.152 298.734 166.152C304.203 166.152 308.695 165.404 312.211 163.906C315.792 162.344 318.461 160.195 320.219 157.461C322.042 154.727 322.953 151.602 322.953 148.086Z" fill="#374151"/>
<path fill-rule="evenodd" clip-rule="evenodd" d="M199.727 179.733C180.52 205.631 149.72 222.417 115 222.417C56.78 222.417 9.58333 175.22 9.58333 117C9.58333 58.78 56.78 11.5833 115 11.5833C149.72 11.5833 180.52 28.3685 199.727 54.2668C201.555 51.4627 203.503 48.7432 205.562 46.1157C184.511 19.2578 151.771 2 115 2C51.4873 2 0 53.4873 0 117C0 180.513 51.4873 232 115 232C151.771 232 184.511 214.742 205.562 187.884C203.503 185.257 201.555 182.537 199.727 179.733ZM205.805 170.579C207.605 173.607 209.554 176.538 211.64 179.36C223.257 161.395 230 139.985 230 117C230 94.0148 223.257 72.6047 211.64 54.6399C209.554 57.4621 207.605 60.3926 205.805 63.4213C215.089 79.1218 220.417 97.4387 220.417 117C220.417 136.561 215.089 154.878 205.805 170.579Z" fill="#374151"/>
<path fill-rule="evenodd" clip-rule="evenodd" d="M211.273 54.2668C230.48 28.3685 261.28 11.5833 296 11.5833C354.22 11.5833 401.417 58.78 401.417 117C401.417 175.22 354.22 222.417 296 222.417C261.28 222.417 230.48 205.632 211.273 179.733C209.445 182.537 207.497 185.257 205.438 187.884C226.489 214.742 259.229 232 296 232C359.513 232 411 180.513 411 117C411 53.4873 359.513 2 296 2C259.229 2 226.489 19.2578 205.438 46.1157C207.497 48.7432 209.445 51.4627 211.273 54.2668ZM205.195 63.4213C203.395 60.3926 201.446 57.4621 199.36 54.6399C187.743 72.6046 181 94.0148 181 117C181 139.985 187.743 161.395 199.36 179.36C201.446 176.538 203.395 173.607 205.195 170.579C195.911 154.878 190.583 136.561 190.583 117C190.583 97.4387 195.911 79.1218 205.195 63.4213Z" fill="#5651E5"/>
</svg>
